<svg width="30" height="27" viewBox="0 0 30 27" fill="none" xmlns="http://www.w3.org/2000/svg">
<path d="M21.25 6.25C21.25 9.09375 17.4427 14.1615 15.7708 16.25C15.3698 16.75 14.625 16.75 14.2292 16.25C12.5573 14.1615 8.75 9.09375 8.75 6.25C8.75 2.79687 11.5469 0 15 0C18.4531 0 21.25 2.79687 21.25 6.25ZM21.6667 10.4375C21.849 10.0781 22.0156 9.71875 22.1667 9.36458C22.1927 9.30208 22.2188 9.23437 22.2448 9.17187L28.2865 6.75521C29.1094 6.42708 30 7.03125 30 7.91667V22.0208C30 22.5312 29.6875 22.9896 29.2135 23.1823L21.6667 26.1979V10.4375ZM7.16667 7.20312C7.29167 7.9375 7.54167 8.67708 7.83333 9.36458C7.98437 9.71875 8.15104 10.0781 8.33333 10.4375V23.5312L1.71354 26.1823C0.890625 26.5104 0 25.9062 0 25.0208V10.9167C0 10.4062 0.3125 9.94792 0.786458 9.75521L7.17187 7.20312H7.16667ZM17.0729 17.2917C17.7969 16.3854 18.9323 14.9115 20 13.2812V26.2656L10 23.4062V13.2812C11.0677 14.9115 12.2031 16.3854 12.9271 17.2917C13.9948 18.625 16.0052 18.625 17.0729 17.2917ZM15 7.91667C15.5525 7.91667 16.0824 7.69717 16.4731 7.30647C16.8638 6.91577 17.0833 6.38587 17.0833 5.83333C17.0833 5.2808 16.8638 4.75089 16.4731 4.36019C16.0824 3.96949 15.5525 3.75 15 3.75C14.4475 3.75 13.9176 3.96949 13.5269 4.36019C13.1362 4.75089 12.9167 5.2808 12.9167 5.83333C12.9167 6.38587 13.1362 6.91577 13.5269 7.30647C13.9176 7.69717 14.4475 7.91667 15 7.91667Z" fill="black"/>
</svg>
