<svg width="412" height="412" viewBox="0 0 412 412" fill="none" xmlns="http://www.w3.org/2000/svg">
<path d="M206 38.625C113.541 38.625 38.625 113.541 38.625 206V238.188C38.625 248.89 30.0148 257.5 19.3125 257.5C8.61016 257.5 0 248.89 0 238.188V206C0 92.2172 92.2172 0 206 0C319.783 0 412 92.2172 412 206V321.955C412 361.063 380.295 392.768 341.107 392.768L252.35 392.688C245.671 404.195 233.198 412 218.875 412H193.125C171.801 412 154.5 394.699 154.5 373.375C154.5 352.051 171.801 334.75 193.125 334.75H218.875C233.198 334.75 245.671 342.555 252.35 354.062L341.188 354.143C358.971 354.143 373.375 339.739 373.375 321.955V206C373.375 113.541 298.459 38.625 206 38.625ZM115.875 167.375H128.75C142.993 167.375 154.5 178.882 154.5 193.125V283.25C154.5 297.493 142.993 309 128.75 309H115.875C87.4695 309 64.375 285.905 64.375 257.5V218.875C64.375 190.47 87.4695 167.375 115.875 167.375ZM296.125 167.375C324.53 167.375 347.625 190.47 347.625 218.875V257.5C347.625 285.905 324.53 309 296.125 309H283.25C269.007 309 257.5 297.493 257.5 283.25V193.125C257.5 178.882 269.007 167.375 283.25 167.375H296.125Z" fill="black"/>
</svg>
