<svg width="40" height="40" viewBox="0 0 40 40" fill="none" xmlns="http://www.w3.org/2000/svg">
<path d="M21.875 -0.000191582C31.8828 -0.000191582 40 8.117 40 18.1248C40 19.1639 39.1641 19.9998 38.125 19.9998C37.0859 19.9998 36.25 19.1639 36.25 18.1248C36.25 10.1873 29.8125 3.74981 21.875 3.74981C20.8359 3.74981 20 2.91387 20 1.87481C20 0.835746 20.8359 -0.000191582 21.875 -0.000191582ZM22.5 14.9998C23.163 14.9998 23.7989 15.2632 24.2678 15.732C24.7366 16.2009 25 16.8368 25 17.4998C25 18.1628 24.7366 18.7987 24.2678 19.2676C23.7989 19.7364 23.163 19.9998 22.5 19.9998C21.837 19.9998 21.2011 19.7364 20.7322 19.2676C20.2634 18.7987 20 18.1628 20 17.4998C20 16.8368 20.2634 16.2009 20.7322 15.732C21.2011 15.2632 21.837 14.9998 22.5 14.9998ZM20 9.37481C20 8.33575 20.8359 7.49981 21.875 7.49981C27.7422 7.49981 32.5 12.2576 32.5 18.1248C32.5 19.1639 31.6641 19.9998 30.625 19.9998C29.5859 19.9998 28.75 19.1639 28.75 18.1248C28.75 14.3279 25.6719 11.2498 21.875 11.2498C20.8359 11.2498 20 10.4139 20 9.37481ZM9.17969 0.109183C10.6953 -0.304879 12.2812 0.468558 12.8828 1.92168L16.0078 9.42168C16.5391 10.6951 16.1719 12.1717 15.1016 13.0389L11.25 16.1951C13.8516 21.6951 18.3047 26.1482 23.8047 28.7498L26.9531 24.8982C27.8281 23.8279 29.2969 23.4607 30.5703 23.992L38.0703 27.117C39.5234 27.7186 40.2969 29.3045 39.8828 30.8201L38.0078 37.6951C37.6406 39.0545 36.4062 39.9998 35 39.9998C15.6719 39.9998 0 24.3279 0 4.99981C0 3.59356 0.945312 2.35918 2.30469 1.98418L9.17969 0.109183Z" fill="black"/>
</svg>
