<svg width="25" height="26" viewBox="0 0 25 26" fill="none" xmlns="http://www.w3.org/2000/svg">
<path d="M14.2857 2.6875C14.2857 1.65039 13.4877 0.8125 12.5 0.8125C11.5123 0.8125 10.7143 1.65039 10.7143 2.6875V11.125H2.6786C1.69087 11.125 0.892883 11.9629 0.892883 13C0.892883 14.0371 1.69087 14.875 2.6786 14.875H10.7143V23.3125C10.7143 24.3496 11.5123 25.1875 12.5 25.1875C13.4877 25.1875 14.2857 24.3496 14.2857 23.3125V14.875H22.3215C23.3092 14.875 24.1072 14.0371 24.1072 13C24.1072 11.9629 23.3092 11.125 22.3215 11.125H14.2857V2.6875Z" fill="black"/>
</svg>
