<svg width="30" height="27" viewBox="0 0 30 27" fill="none" xmlns="http://www.w3.org/2000/svg">
<path d="M0 1.26562C0 0.564258 0.557292 0 1.25 0H3.61979C4.76562 0 5.78125 0.675 6.25521 1.6875H27.6615C29.0312 1.6875 30.0312 3.00586 29.6719 4.34531L27.5365 12.3768C27.0938 14.0326 25.6094 15.1875 23.9167 15.1875H8.89062L9.17188 16.6904C9.28646 17.2863 9.80208 17.7188 10.401 17.7188H25.4167C26.1094 17.7188 26.6667 18.283 26.6667 18.9844C26.6667 19.6857 26.1094 20.25 25.4167 20.25H10.401C8.59896 20.25 7.05208 18.9527 6.71875 17.165L4.03125 2.87402C3.99479 2.67363 3.82292 2.53125 3.61979 2.53125H1.25C0.557292 2.53125 0 1.96699 0 1.26562ZM6.66667 24.4688C6.66667 24.1363 6.73133 23.8072 6.85697 23.5001C6.9826 23.193 7.16675 22.9139 7.3989 22.6789C7.63105 22.4438 7.90664 22.2574 8.20996 22.1302C8.51327 22.003 8.83836 21.9375 9.16667 21.9375C9.49497 21.9375 9.82006 22.003 10.1234 22.1302C10.4267 22.2574 10.7023 22.4438 10.9344 22.6789C11.1666 22.9139 11.3507 23.193 11.4764 23.5001C11.602 23.8072 11.6667 24.1363 11.6667 24.4688C11.6667 24.8012 11.602 25.1303 11.4764 25.4374C11.3507 25.7445 11.1666 26.0236 10.9344 26.2586C10.7023 26.4937 10.4267 26.6801 10.1234 26.8073C9.82006 26.9345 9.49497 27 9.16667 27C8.83836 27 8.51327 26.9345 8.20996 26.8073C7.90664 26.6801 7.63105 26.4937 7.3989 26.2586C7.16675 26.0236 6.9826 25.7445 6.85697 25.4374C6.73133 25.1303 6.66667 24.8012 6.66667 24.4688ZM24.1667 21.9375C24.8297 21.9375 25.4656 22.2042 25.9344 22.6789C26.4033 23.1536 26.6667 23.7974 26.6667 24.4688C26.6667 25.1401 26.4033 25.7839 25.9344 26.2586C25.4656 26.7333 24.8297 27 24.1667 27C23.5036 27 22.8677 26.7333 22.3989 26.2586C21.9301 25.7839 21.6667 25.1401 21.6667 24.4688C21.6667 23.7974 21.9301 23.1536 22.3989 22.6789C22.8677 22.2042 23.5036 21.9375 24.1667 21.9375Z" fill="black"/>
</svg>
