<svg width="21" height="21" viewBox="0 0 21 21" fill="none" xmlns="http://www.w3.org/2000/svg">
<path d="M12.9185 19.7747C12.9185 20.1458 12.6998 20.4817 12.3639 20.6301C12.028 20.7786 11.6297 20.72 11.3563 20.47L8.23188 17.6575C8.0327 17.4778 7.92335 17.2278 7.92335 16.9622C7.92335 16.6965 8.03661 16.4426 8.23188 16.2668L11.3563 13.4543C11.6297 13.2083 12.028 13.1458 12.3639 13.2942C12.6998 13.4426 12.9185 13.7786 12.9185 14.1497V15.7122H13.5434C14.922 15.7122 16.0429 14.5911 16.0429 13.2122V6.70044C14.9376 6.21997 14.1682 5.11841 14.1682 3.83716C14.1682 2.1106 15.5664 0.712158 17.2926 0.712158C19.0189 0.712158 20.417 2.1106 20.417 3.83716C20.417 5.11841 19.6476 6.21997 18.5424 6.70044V13.2122C18.5424 15.9739 16.3045 18.2122 13.5434 18.2122H12.9185V19.7747ZM18.2299 3.83716C18.2299 3.58852 18.1312 3.35006 17.9554 3.17425C17.7796 2.99843 17.5412 2.89966 17.2926 2.89966C17.044 2.89966 16.8056 2.99843 16.6298 3.17425C16.4541 3.35006 16.3553 3.58852 16.3553 3.83716C16.3553 4.0858 16.4541 4.32426 16.6298 4.50007C16.8056 4.67589 17.044 4.77466 17.2926 4.77466C17.5412 4.77466 17.7796 4.67589 17.9554 4.50007C18.1312 4.32426 18.2299 4.0858 18.2299 3.83716ZM7.91944 1.64966C7.91944 1.27856 8.13815 0.942627 8.47402 0.794189C8.80989 0.645752 9.20825 0.704346 9.48164 0.954346L12.606 3.76685C12.8052 3.94653 12.9146 4.19653 12.9146 4.46216C12.9146 4.72778 12.8013 4.98169 12.606 5.15747L9.48164 7.96997C9.20825 8.21606 8.80989 8.27856 8.47402 8.13013C8.13815 7.98169 7.91944 7.64575 7.91944 7.27466V5.71216H7.29456C5.91593 5.71216 4.79505 6.83325 4.79505 8.21216V14.7239C5.9003 15.2043 6.66969 16.3059 6.66969 17.5872C6.66969 19.3137 5.27152 20.7122 3.54529 20.7122C1.81906 20.7122 0.420898 19.3137 0.420898 17.5872C0.420898 16.3059 1.19028 15.2043 2.29553 14.7239V8.21216C2.29553 5.45044 4.53338 3.21216 7.29456 3.21216H7.91944V1.64966ZM2.60797 17.5872C2.60797 17.8358 2.70673 18.0743 2.88251 18.2501C3.05829 18.4259 3.2967 18.5247 3.54529 18.5247C3.79388 18.5247 4.03229 18.4259 4.20808 18.2501C4.38386 18.0743 4.48261 17.8358 4.48261 17.5872C4.48261 17.3385 4.38386 17.1001 4.20808 16.9242C4.03229 16.7484 3.79388 16.6497 3.54529 16.6497C3.2967 16.6497 3.05829 16.7484 2.88251 16.9242C2.70673 17.1001 2.60797 17.3385 2.60797 17.5872Z" fill="black"/>
</svg>
