<svg width="25" height="20" viewBox="0 0 25 20" fill="none" xmlns="http://www.w3.org/2000/svg">
<path d="M3.125 3.26855C2.69531 3.26855 2.34375 3.62012 2.34375 4.0498V5.12891L10.7666 12.043C11.7773 12.873 13.2275 12.873 14.2383 12.043L22.6562 5.12891V4.0498C22.6562 3.62012 22.3047 3.26855 21.875 3.26855H3.125ZM2.34375 8.16113V16.5498C2.34375 16.9795 2.69531 17.3311 3.125 17.3311H21.875C22.3047 17.3311 22.6562 16.9795 22.6562 16.5498V8.16113L15.7227 13.8545C13.8477 15.3926 11.1475 15.3926 9.27734 13.8545L2.34375 8.16113ZM0 4.0498C0 2.32617 1.40137 0.924805 3.125 0.924805H21.875C23.5986 0.924805 25 2.32617 25 4.0498V16.5498C25 18.2734 23.5986 19.6748 21.875 19.6748H3.125C1.40137 19.6748 0 18.2734 0 16.5498V4.0498Z" fill="black"/>
</svg>
