<svg width="30" height="35" viewBox="0 0 30 35" fill="none" xmlns="http://www.w3.org/2000/svg">
<g clip-path="url(#clip0_288_736)">
<path d="M11.4174 3.52734L10.1451 5.46875H19.8549L18.5826 3.52734C18.4821 3.37695 18.3147 3.28125 18.1339 3.28125H11.8594C11.6786 3.28125 11.5112 3.37012 11.4107 3.52734H11.4174ZM21.2612 1.70898L23.7188 5.46875H24.6429H27.8571H28.3929C29.2835 5.46875 30 6.2002 30 7.10938C30 8.01855 29.2835 8.75 28.3929 8.75H27.8571V29.5312C27.8571 32.5527 25.4598 35 22.5 35H7.5C4.54018 35 2.14286 32.5527 2.14286 29.5312V8.75H1.60714C0.716518 8.75 0 8.01855 0 7.10938C0 6.2002 0.716518 5.46875 1.60714 5.46875H2.14286H5.35714H6.28125L8.73884 1.70215C9.43527 0.642578 10.6071 0 11.8594 0H18.1339C19.3862 0 20.558 0.642578 21.2545 1.70215L21.2612 1.70898ZM5.35714 8.75V29.5312C5.35714 30.7412 6.31473 31.7188 7.5 31.7188H22.5C23.6853 31.7188 24.6429 30.7412 24.6429 29.5312V8.75H5.35714ZM10.7143 13.125V27.3438C10.7143 27.9453 10.2321 28.4375 9.64286 28.4375C9.05357 28.4375 8.57143 27.9453 8.57143 27.3438V13.125C8.57143 12.5234 9.05357 12.0312 9.64286 12.0312C10.2321 12.0312 10.7143 12.5234 10.7143 13.125ZM16.0714 13.125V27.3438C16.0714 27.9453 15.5893 28.4375 15 28.4375C14.4107 28.4375 13.9286 27.9453 13.9286 27.3438V13.125C13.9286 12.5234 14.4107 12.0312 15 12.0312C15.5893 12.0312 16.0714 12.5234 16.0714 13.125ZM21.4286 13.125V27.3438C21.4286 27.9453 20.9464 28.4375 20.3571 28.4375C19.7679 28.4375 19.2857 27.9453 19.2857 27.3438V13.125C19.2857 12.5234 19.7679 12.0312 20.3571 12.0312C20.9464 12.0312 21.4286 12.5234 21.4286 13.125Z" fill="#D22C2C"/>
</g>
<defs>
<clipPath id="clip0_288_736">
<rect width="30" height="35" fill="white"/>
</clipPath>
</defs>
</svg>
