<svg width="20" height="16" viewBox="0 0 20 16" fill="none" xmlns="http://www.w3.org/2000/svg">
<path d="M1.44203 0C0.645908 0 0 0.66424 0 1.48295V11.3693C0 12.188 0.645908 12.8523 1.44203 12.8523H1.9227C1.9227 14.4897 3.21452 15.8182 4.80676 15.8182C6.399 15.8182 7.69081 14.4897 7.69081 12.8523H11.5362C11.5362 14.4897 12.828 15.8182 14.4203 15.8182C16.0125 15.8182 17.3043 14.4897 17.3043 12.8523H18.2657C18.7974 12.8523 19.227 12.4105 19.227 11.8636C19.227 11.3168 18.7974 10.875 18.2657 10.875V8.89773V7.90909V7.33136C18.2657 6.80614 18.0644 6.30256 17.7039 5.93182L15.3816 3.54364C15.0211 3.1729 14.5314 2.96591 14.0207 2.96591H12.4976V1.48295C12.4976 0.66424 11.8517 0 11.0555 0H1.44203ZM12.4976 4.94318H14.0207L16.343 7.33136V7.90909H12.4976V4.94318ZM3.36473 12.8523C3.36473 12.459 3.51666 12.0818 3.78709 11.8037C4.05752 11.5256 4.42431 11.3693 4.80676 11.3693C5.18921 11.3693 5.55599 11.5256 5.82643 11.8037C6.09686 12.0818 6.24879 12.459 6.24879 12.8523C6.24879 13.2456 6.09686 13.6228 5.82643 13.9009C5.55599 14.179 5.18921 14.3352 4.80676 14.3352C4.42431 14.3352 4.05752 14.179 3.78709 13.9009C3.51666 13.6228 3.36473 13.2456 3.36473 12.8523ZM14.4203 11.3693C14.8027 11.3693 15.1695 11.5256 15.4399 11.8037C15.7104 12.0818 15.8623 12.459 15.8623 12.8523C15.8623 13.2456 15.7104 13.6228 15.4399 13.9009C15.1695 14.179 14.8027 14.3352 14.4203 14.3352C14.0378 14.3352 13.671 14.179 13.4006 13.9009C13.1302 13.6228 12.9783 13.2456 12.9783 12.8523C12.9783 12.459 13.1302 12.0818 13.4006 11.8037C13.671 11.5256 14.0378 11.3693 14.4203 11.3693Z" fill="#FDB819"/>
</svg>
