<svg width="30" height="30" viewBox="0 0 30 30" fill="none" xmlns="http://www.w3.org/2000/svg">
<path d="M5.25 0C4.00781 0 3 1.25977 3 2.8125V5.625H0.75C0.3375 5.625 0 6.04688 0 6.5625C0 7.07812 0.3375 7.5 0.75 7.5H3H12.75C13.1625 7.5 13.5 7.92188 13.5 8.4375C13.5 8.95312 13.1625 9.375 12.75 9.375H3H2.25C1.8375 9.375 1.5 9.79688 1.5 10.3125C1.5 10.8281 1.8375 11.25 2.25 11.25H3H11.25C11.6625 11.25 12 11.6719 12 12.1875C12 12.7031 11.6625 13.125 11.25 13.125H3H0.75C0.3375 13.125 0 13.5469 0 14.0625C0 14.5781 0.3375 15 0.75 15H3H9.75C10.1625 15 10.5 15.4219 10.5 15.9375C10.5 16.4531 10.1625 16.875 9.75 16.875H3V24.375C3 27.4805 5.01562 30 7.5 30C9.98438 30 12 27.4805 12 24.375H18C18 27.4805 20.0156 30 22.5 30C24.9844 30 27 27.4805 27 24.375H28.5C29.3297 24.375 30 23.5371 30 22.5C30 21.4629 29.3297 20.625 28.5 20.625V16.875V15V13.9043C28.5 12.9082 28.1859 11.9531 27.6234 11.25L24 6.7207C23.4375 6.01758 22.6734 5.625 21.8766 5.625H19.5V2.8125C19.5 1.25977 18.4922 0 17.25 0H5.25ZM25.5 13.9043V15H19.5V9.375H21.8766L25.5 13.9043ZM7.5 21.5625C8.09674 21.5625 8.66903 21.8588 9.09099 22.3863C9.51295 22.9137 9.75 23.6291 9.75 24.375C9.75 25.1209 9.51295 25.8363 9.09099 26.3637C8.66903 26.8912 8.09674 27.1875 7.5 27.1875C6.90326 27.1875 6.33097 26.8912 5.90901 26.3637C5.48705 25.8363 5.25 25.1209 5.25 24.375C5.25 23.6291 5.48705 22.9137 5.90901 22.3863C6.33097 21.8588 6.90326 21.5625 7.5 21.5625ZM20.25 24.375C20.25 23.6291 20.4871 22.9137 20.909 22.3863C21.331 21.8588 21.9033 21.5625 22.5 21.5625C23.0967 21.5625 23.669 21.8588 24.091 22.3863C24.5129 22.9137 24.75 23.6291 24.75 24.375C24.75 25.1209 24.5129 25.8363 24.091 26.3637C23.669 26.8912 23.0967 27.1875 22.5 27.1875C21.9033 27.1875 21.331 26.8912 20.909 26.3637C20.4871 25.8363 20.25 25.1209 20.25 24.375Z" fill="black"/>
</svg>
