<svg width="26" height="25" viewBox="0 0 26 25" fill="none" xmlns="http://www.w3.org/2000/svg">
<path d="M11.4664 23.5472L11.3395 23.4216L2.44258 14.5362C0.883594 12.9798 0 10.7953 0 8.50705V8.32683C0 4.48213 2.53906 1.18356 6.05312 0.462676C8.05391 0.0476233 10.1004 0.544594 11.7305 1.77883C12.1875 2.12835 12.6141 2.53248 13 2.99668C13.2133 2.73454 13.4418 2.49425 13.6855 2.27034C13.8734 2.09558 14.0664 1.93174 14.2695 1.77883C15.8996 0.544594 17.9461 0.0476233 19.9469 0.457215C23.4609 1.1781 26 4.48213 26 8.32683V8.50705C26 10.7953 25.1164 12.9798 23.5574 14.5362L14.6605 23.4216L14.5336 23.5472C14.1172 23.9623 13.5688 24.1971 13 24.1971C12.4312 24.1971 11.8828 23.9678 11.4664 23.5472ZM12.1418 5.89659C12.1215 5.88021 12.1063 5.85836 12.091 5.83652L11.1871 4.74427L11.182 4.73881C10.009 3.32436 8.23672 2.67993 6.51016 3.03491C4.14375 3.52096 2.4375 5.73821 2.4375 8.32683V8.50705C2.4375 10.0635 3.0418 11.5544 4.10313 12.6139L13 21.4993L21.8969 12.6139C22.9582 11.5544 23.5625 10.0635 23.5625 8.50705V8.32683C23.5625 5.74367 21.8562 3.52096 19.4949 3.03491C17.7684 2.67993 15.991 3.32982 14.823 4.73881C14.823 4.73881 14.823 4.73881 14.818 4.74427C14.8129 4.74973 14.818 4.74427 14.8129 4.74973L13.909 5.84198C13.8937 5.86382 13.8734 5.88021 13.8582 5.90205C13.6297 6.14781 13.3199 6.28434 13 6.28434C12.6801 6.28434 12.3703 6.14781 12.1418 5.90205V5.89659Z" fill="#FDB819"/>
</svg>
