<svg width="21" height="21" viewBox="0 0 21 21" fill="none" xmlns="http://www.w3.org/2000/svg">
<path d="M2.27991 11.8235L9.33714 19.5293C9.63005 19.8491 10.0167 20.0272 10.419 20.0272C10.8212 20.0272 11.2079 19.8491 11.5008 19.5293L18.558 11.8235C19.7453 10.5308 20.417 8.71739 20.417 6.82176V6.55683C20.417 3.36395 18.4447 0.641548 15.7539 0.116253C13.973 -0.230899 12.1608 0.449701 10.8876 1.9388L10.419 2.48693L9.9503 1.9388C8.67711 0.449701 6.86496 -0.230899 5.08406 0.116253C2.39317 0.641548 0.420898 3.36395 0.420898 6.55683V6.82176C0.420898 8.71739 1.09264 10.5308 2.27991 11.8235Z" fill="#FDB819"/>
</svg>
