<svg width="30" height="28" viewBox="0 0 30 28" fill="none" xmlns="http://www.w3.org/2000/svg">
<path d="M13.2305 27.238L13.084 27.0907L2.81836 16.6727C1.01953 14.8477 0 12.2864 0 9.60348V9.39217C0 4.88429 2.92969 1.01673 6.98438 0.1715C9.29297 -0.315146 11.6543 0.267549 13.5352 1.71468C14.0625 2.12449 14.5547 2.59833 15 3.14261C15.2461 2.83525 15.5098 2.55351 15.791 2.29097C16.0078 2.08607 16.2305 1.89397 16.4648 1.71468C18.3457 0.267549 20.707 -0.315146 23.0156 0.165097C27.0703 1.01033 30 4.88429 30 9.39217V9.60348C30 12.2864 28.9805 14.8477 27.1816 16.6727L16.916 27.0907L16.7695 27.238C16.2891 27.7247 15.6562 28 15 28C14.3438 28 13.7109 27.7311 13.2305 27.238ZM14.0098 6.54273C13.9863 6.52352 13.9688 6.49791 13.9512 6.47229L12.9082 5.19164L12.9023 5.18524C11.5488 3.5268 9.50391 2.77122 7.51172 3.18743C4.78125 3.75732 2.8125 6.35703 2.8125 9.39217V9.60348C2.8125 11.4284 3.50977 13.1765 4.73438 14.4187L15 24.8368L25.2656 14.4187C26.4902 13.1765 27.1875 11.4284 27.1875 9.60348V9.39217C27.1875 6.36344 25.2188 3.75732 22.4941 3.18743C20.502 2.77122 18.4512 3.5332 17.1035 5.18524C17.1035 5.18524 17.1035 5.18524 17.0977 5.19164C17.0918 5.19805 17.0977 5.19164 17.0918 5.19805L16.0488 6.4787C16.0312 6.50431 16.0078 6.52352 15.9902 6.54913C15.7266 6.83728 15.3691 6.99736 15 6.99736C14.6309 6.99736 14.2734 6.83728 14.0098 6.54913V6.54273Z" fill="black"/>
</svg>
