<svg width="20" height="25" viewBox="0 0 20 25" fill="none" xmlns="http://www.w3.org/2000/svg">
<path d="M6.42857 7.03125V9.375H13.5714V7.03125C13.5714 4.87305 11.9732 3.125 10 3.125C8.02679 3.125 6.42857 4.87305 6.42857 7.03125ZM3.57143 9.375V7.03125C3.57143 3.14941 6.45089 0 10 0C13.5491 0 16.4286 3.14941 16.4286 7.03125V9.375H17.1429C18.7188 9.375 20 10.7764 20 12.5V21.875C20 23.5986 18.7188 25 17.1429 25H2.85714C1.28125 25 0 23.5986 0 21.875V12.5C0 10.7764 1.28125 9.375 2.85714 9.375H3.57143Z" fill="black"/>
</svg>
