<svg width="13" height="12" viewBox="0 0 13 12" fill="none" xmlns="http://www.w3.org/2000/svg">
<g clip-path="url(#clip0_288_2452)">
<path d="M6.59789 9.96266C9.78387 9.96266 12.366 8.05283 12.366 5.69581C12.366 3.33878 9.78387 1.42896 6.59789 1.42896C3.41191 1.42896 0.829784 3.33878 0.829784 5.69581C0.829784 6.62098 1.22859 7.4764 1.90455 8.17591C1.86173 8.6785 1.64768 9.1257 1.42237 9.46623C1.29844 9.65495 1.17227 9.80675 1.07989 9.90932C1.03257 9.96061 0.996518 9.99958 0.96948 10.0263C0.955961 10.0386 0.946949 10.0488 0.940189 10.055L0.93343 10.0611C0.829784 10.1555 0.800493 10.295 0.856822 10.4181C0.913151 10.5411 1.04383 10.6211 1.19029 10.6211C1.83695 10.6211 2.48812 10.4386 3.02888 10.2252C3.54485 10.0201 3.98422 9.77598 4.25235 9.59751C4.96885 9.83342 5.76197 9.96471 6.59789 9.96471V9.96266ZM3.71384 5.03937C3.90506 5.03937 4.08846 5.10853 4.22367 5.23163C4.35889 5.35474 4.43485 5.52171 4.43485 5.69581C4.43485 5.8699 4.35889 6.03687 4.22367 6.15998C4.08846 6.28308 3.90506 6.35225 3.71384 6.35225C3.52261 6.35225 3.33922 6.28308 3.20401 6.15998C3.06879 6.03687 2.99283 5.8699 2.99283 5.69581C2.99283 5.52171 3.06879 5.35474 3.20401 5.23163C3.33922 5.10853 3.52261 5.03937 3.71384 5.03937ZM6.59789 5.03937C6.78912 5.03937 6.97251 5.10853 7.10773 5.23163C7.24294 5.35474 7.31891 5.52171 7.31891 5.69581C7.31891 5.8699 7.24294 6.03687 7.10773 6.15998C6.97251 6.28308 6.78912 6.35225 6.59789 6.35225C6.40667 6.35225 6.22328 6.28308 6.08806 6.15998C5.95285 6.03687 5.87688 5.8699 5.87688 5.69581C5.87688 5.52171 5.95285 5.35474 6.08806 5.23163C6.22328 5.10853 6.40667 5.03937 6.59789 5.03937ZM8.76094 5.69581C8.76094 5.52171 8.8369 5.35474 8.97212 5.23163C9.10733 5.10853 9.29073 5.03937 9.48195 5.03937C9.67317 5.03937 9.85657 5.10853 9.99178 5.23163C10.127 5.35474 10.203 5.52171 10.203 5.69581C10.203 5.8699 10.127 6.03687 9.99178 6.15998C9.85657 6.28308 9.67317 6.35225 9.48195 6.35225C9.29073 6.35225 9.10733 6.28308 8.97212 6.15998C8.8369 6.03687 8.76094 5.8699 8.76094 5.69581Z" fill="black"/>
</g>
<defs>
<clipPath id="clip0_288_2452">
<rect width="11.5362" height="10.503" fill="white" transform="translate(0.830078 0.772461)"/>
</clipPath>
</defs>
</svg>
