<svg width="36" height="33" viewBox="0 0 36 33" fill="none" xmlns="http://www.w3.org/2000/svg">
<path d="M33.014 5.5608L30.5301 14.9687C30.53 14.9692 30.5299 14.9697 30.5297 14.9702C30.2397 16.0601 29.2859 16.7753 28.2516 16.7753H10.7689H9.47041L7.26355 4.95713H7.70267H32.6086C32.8424 4.95713 33.1069 5.21174 33.0151 5.55647L33.014 5.5608ZM10.1814 29.6503C10.1814 29.5181 10.207 29.3881 10.2558 29.268C10.3045 29.148 10.375 29.0415 10.4613 28.9535C10.5475 28.8656 10.6477 28.798 10.7552 28.7526C10.8625 28.7072 10.9762 28.6844 11.0901 28.6844C11.204 28.6844 11.3177 28.7072 11.4251 28.7526C11.5326 28.798 11.6328 28.8656 11.719 28.9535C11.8053 29.0415 11.8757 29.148 11.9245 29.268C11.9733 29.3881 11.9988 29.5181 11.9988 29.6503C11.9988 29.7825 11.9733 29.9125 11.9245 30.0326C11.8757 30.1526 11.8053 30.2592 11.719 30.3471C11.6328 30.435 11.5326 30.5027 11.4251 30.548C11.3177 30.5934 11.204 30.6162 11.0901 30.6162C10.9762 30.6162 10.8625 30.5934 10.7551 30.548C10.6477 30.5027 10.5475 30.435 10.4613 30.3471C10.375 30.2592 10.3045 30.1526 10.2558 30.0326C10.207 29.9125 10.1814 29.7825 10.1814 29.6503ZM28.5424 28.6844C28.7708 28.6844 28.9978 28.7765 29.1713 28.9535C29.3462 29.1318 29.4512 29.3817 29.4512 29.6503C29.4512 29.9189 29.3462 30.1689 29.1713 30.3471C28.9978 30.5241 28.7708 30.6162 28.5424 30.6162C28.3141 30.6162 28.0871 30.5241 27.9136 30.3471C27.7387 30.1689 27.6337 29.9189 27.6337 29.6503C27.6337 29.3817 27.7387 29.1318 27.9136 28.9535C28.0871 28.7765 28.3141 28.6844 28.5424 28.6844Z" stroke="#FDB819" stroke-width="4"/>
</svg>
