<svg width="30" height="35" viewBox="0 0 30 35" fill="none" xmlns="http://www.w3.org/2000/svg">
<path d="M15 17.5C17.2733 17.5 19.4535 16.5781 21.0609 14.9372C22.6684 13.2962 23.5714 11.0706 23.5714 8.75C23.5714 6.42936 22.6684 4.20376 21.0609 2.56282C19.4535 0.921872 17.2733 0 15 0C12.7267 0 10.5465 0.921872 8.93908 2.56282C7.33163 4.20376 6.42857 6.42936 6.42857 8.75C6.42857 11.0706 7.33163 13.2962 8.93908 14.9372C10.5465 16.5781 12.7267 17.5 15 17.5ZM11.9397 20.7812C5.34375 20.7812 0 26.2363 0 32.9697C0 34.0908 0.890625 35 1.98884 35H28.0112C29.1094 35 30 34.0908 30 32.9697C30 26.2363 24.6562 20.7812 18.0603 20.7812H11.9397Z" fill="black"/>
</svg>
