<svg width="13" height="10" viewBox="0 0 13 10" fill="none" xmlns="http://www.w3.org/2000/svg">
<path d="M6.59789 8.96266C9.78387 8.96266 12.366 7.05283 12.366 4.69581C12.366 2.33878 9.78387 0.428955 6.59789 0.428955C3.41191 0.428955 0.829784 2.33878 0.829784 4.69581C0.829784 5.62098 1.22859 6.4764 1.90455 7.17591C1.86173 7.6785 1.64768 8.1257 1.42237 8.46623C1.29844 8.65495 1.17227 8.80675 1.07989 8.90932C1.03257 8.96061 0.996518 8.99958 0.96948 9.02625C0.955961 9.03856 0.946949 9.04882 0.940189 9.05497L0.93343 9.06112C0.829784 9.15549 0.800493 9.29498 0.856822 9.41806C0.913151 9.54115 1.04383 9.62115 1.19029 9.62115C1.83695 9.62115 2.48812 9.43858 3.02888 9.22523C3.54485 9.0201 3.98422 8.77598 4.25235 8.59751C4.96885 8.83342 5.76197 8.96471 6.59789 8.96471V8.96266ZM3.71384 4.03937C3.90506 4.03937 4.08846 4.10853 4.22367 4.23163C4.35889 4.35474 4.43485 4.52171 4.43485 4.69581C4.43485 4.8699 4.35889 5.03687 4.22367 5.15998C4.08846 5.28308 3.90506 5.35225 3.71384 5.35225C3.52261 5.35225 3.33922 5.28308 3.20401 5.15998C3.06879 5.03687 2.99283 4.8699 2.99283 4.69581C2.99283 4.52171 3.06879 4.35474 3.20401 4.23163C3.33922 4.10853 3.52261 4.03937 3.71384 4.03937ZM6.59789 4.03937C6.78912 4.03937 6.97251 4.10853 7.10773 4.23163C7.24294 4.35474 7.31891 4.52171 7.31891 4.69581C7.31891 4.8699 7.24294 5.03687 7.10773 5.15998C6.97251 5.28308 6.78912 5.35225 6.59789 5.35225C6.40667 5.35225 6.22328 5.28308 6.08806 5.15998C5.95285 5.03687 5.87688 4.8699 5.87688 4.69581C5.87688 4.52171 5.95285 4.35474 6.08806 4.23163C6.22328 4.10853 6.40667 4.03937 6.59789 4.03937ZM8.76094 4.69581C8.76094 4.52171 8.8369 4.35474 8.97212 4.23163C9.10733 4.10853 9.29073 4.03937 9.48195 4.03937C9.67317 4.03937 9.85657 4.10853 9.99178 4.23163C10.127 4.35474 10.203 4.52171 10.203 4.69581C10.203 4.8699 10.127 5.03687 9.99178 5.15998C9.85657 5.28308 9.67317 5.35225 9.48195 5.35225C9.29073 5.35225 9.10733 5.28308 8.97212 5.15998C8.8369 5.03687 8.76094 4.8699 8.76094 4.69581Z" fill="black"/>
</svg>
