<svg width="28" height="30" viewBox="0 0 28 30" fill="none" xmlns="http://www.w3.org/2000/svg">
<path d="M13.9948 0C14.474 0 14.9115 0.304688 15.1198 0.791016L18.6927 9.07031L26.6719 10.3945C27.1406 10.4707 27.5312 10.8398 27.6771 11.3496C27.8229 11.8594 27.7031 12.4102 27.3698 12.7852L21.5833 19.2422L22.9479 28.3594C23.026 28.8867 22.8333 29.4199 22.4427 29.7363C22.0521 30.0527 21.5417 30.0879 21.125 29.8359L13.9896 25.5469L6.86459 29.8301C6.44271 30.082 5.93229 30.0469 5.54688 29.7305C5.16146 29.4141 4.96354 28.8809 5.04167 28.3535L6.40625 19.2363L0.619794 12.7852C0.281252 12.4102 0.166669 11.8535 0.312502 11.3496C0.458335 10.8457 0.84896 10.4766 1.31771 10.3945L9.29688 9.07031L12.8698 0.791016C13.0833 0.304688 13.5156 0 13.9948 0ZM13.9948 4.62891L11.2604 10.9688C11.0781 11.3848 10.7292 11.6777 10.3177 11.748L4.15625 12.7676L8.63021 17.7539C8.91667 18.0762 9.05208 18.5332 8.98438 18.9844L7.92708 25.998L13.4063 22.7051C13.776 22.4824 14.2188 22.4824 14.5833 22.7051L20.0625 25.998L19.0104 18.9902C18.9427 18.5391 19.0729 18.082 19.3646 17.7598L23.8385 12.7734L17.6771 11.748C17.2708 11.6777 16.9167 11.3906 16.7344 10.9688L13.9948 4.62891Z" fill="black"/>
</svg>
