<svg width="13" height="12" viewBox="0 0 13 12" fill="none" xmlns="http://www.w3.org/2000/svg">
<path d="M6.77563 1.36595L6.77642 1.36751L8.15008 4.08147L8.26785 4.31415L8.52606 4.35073L11.5948 4.78546C11.5949 4.78547 11.595 4.78549 11.5951 4.7855C11.673 4.79683 11.7245 4.8466 11.7424 4.89841C11.758 4.94382 11.748 5.00039 11.7022 5.04384L11.702 5.04402L9.47592 7.15899L9.28124 7.34395L9.32793 7.6084L9.85536 10.5958C9.85538 10.5959 9.85539 10.5961 9.85541 10.5962C9.86333 10.6426 9.84559 10.7009 9.78613 10.7425C9.73026 10.7815 9.64806 10.7896 9.57706 10.7539C9.57682 10.7538 9.57658 10.7537 9.57635 10.7536L6.8375 9.34945L6.6094 9.23251L6.38129 9.34945L3.64245 10.7536C3.64221 10.7537 3.64196 10.7538 3.64172 10.754C3.57335 10.7882 3.48946 10.7816 3.42998 10.7406C3.37486 10.7026 3.35512 10.6445 3.36339 10.5961C3.36341 10.596 3.36342 10.5959 3.36344 10.5958L3.88879 7.60806L3.93526 7.3438L3.74074 7.15899L1.51468 5.04402L1.51448 5.04384C1.47123 5.00279 1.45855 4.94548 1.47561 4.89456C1.491 4.84861 1.54077 4.79726 1.62149 4.7855C1.62161 4.78549 1.62172 4.78547 1.62183 4.78546L4.68851 4.35072L4.94669 4.31412L5.06444 4.08147L6.43719 1.36931C6.43729 1.36912 6.43739 1.36892 6.43749 1.36873C6.46489 1.3157 6.52669 1.27246 6.60726 1.27246C6.69067 1.27246 6.75152 1.31789 6.77563 1.36595Z" stroke="#FDB819"/>
</svg>
