<svg width="12" height="12" viewBox="0 0 12 12" fill="none" xmlns="http://www.w3.org/2000/svg">
<path d="M6.61169 1.14171C6.49846 0.916057 6.25919 0.772461 5.99642 0.772461C5.73365 0.772461 5.49652 0.916057 5.38116 1.14171L4.00749 3.85567L0.939712 4.29056C0.683351 4.32749 0.469717 4.4998 0.390673 4.73571C0.311628 4.97162 0.375718 5.23214 0.559443 5.40651L2.78551 7.52147L2.25997 10.5103C2.21724 10.7565 2.32406 11.0068 2.53556 11.1524C2.74705 11.298 3.02691 11.3165 3.25764 11.1996L5.99856 9.79439L8.73948 11.1996C8.9702 11.3165 9.25006 11.3001 9.46156 11.1524C9.67306 11.0047 9.77988 10.7565 9.73715 10.5103L9.20947 7.52147L11.4355 5.40651C11.6193 5.23214 11.6855 4.97162 11.6043 4.73571C11.5231 4.4998 11.3116 4.32749 11.0553 4.29056L7.98535 3.85567L6.61169 1.14171Z" fill="#FDB819"/>
</svg>
