<svg width="30" height="24" viewBox="0 0 30 24" fill="none" xmlns="http://www.w3.org/2000/svg">
<path d="M0 2.625C0 1.58789 0.957589 0.75 2.14286 0.75H27.8571C29.0424 0.75 30 1.58789 30 2.625C30 3.66211 29.0424 4.5 27.8571 4.5H2.14286C0.957589 4.5 0 3.66211 0 2.625ZM0 12C0 10.9629 0.957589 10.125 2.14286 10.125H27.8571C29.0424 10.125 30 10.9629 30 12C30 13.0371 29.0424 13.875 27.8571 13.875H2.14286C0.957589 13.875 0 13.0371 0 12ZM30 21.375C30 22.4121 29.0424 23.25 27.8571 23.25H2.14286C0.957589 23.25 0 22.4121 0 21.375C0 20.3379 0.957589 19.5 2.14286 19.5H27.8571C29.0424 19.5 30 20.3379 30 21.375Z" fill="black"/>
</svg>
