<svg width="50" height="45" viewBox="0 0 50 45" fill="none" xmlns="http://www.w3.org/2000/svg">
<path d="M0.155273 2.11825C0.155273 0.963732 1.08409 0.0349121 2.23861 0.0349121H6.18826C8.09798 0.0349121 9.79069 1.14602 10.5806 2.81269H46.2577C48.5407 2.81269 50.2074 4.98283 49.6084 7.18769L46.0494 20.4082C45.3115 23.1339 42.8376 25.0349 40.0164 25.0349H14.973L15.4417 27.5089C15.6327 28.4898 16.4921 29.2016 17.4903 29.2016H42.5164C43.6709 29.2016 44.5997 30.1304 44.5997 31.2849C44.5997 32.4394 43.6709 33.3682 42.5164 33.3682H17.4903C14.4869 33.3682 11.9087 31.2328 11.3532 28.2901L6.87402 4.76582C6.81326 4.43595 6.5268 4.20158 6.18826 4.20158H2.23861C1.08409 4.20158 0.155273 3.27276 0.155273 2.11825ZM11.2664 40.3127C11.2664 39.7655 11.3742 39.2237 11.5836 38.7182C11.7929 38.2127 12.0999 37.7533 12.4868 37.3664C12.8737 36.9795 13.333 36.6726 13.8385 36.4632C14.3441 36.2538 14.8859 36.146 15.4331 36.146C15.9802 36.146 16.522 36.2538 17.0276 36.4632C17.5331 36.6726 17.9924 36.9795 18.3793 37.3664C18.7662 37.7533 19.0732 38.2127 19.2825 38.7182C19.4919 39.2237 19.5997 39.7655 19.5997 40.3127C19.5997 40.8599 19.4919 41.4017 19.2825 41.9072C19.0732 42.4127 18.7662 42.8721 18.3793 43.259C17.9924 43.6459 17.5331 43.9528 17.0276 44.1622C16.522 44.3716 15.9802 44.4794 15.4331 44.4794C14.8859 44.4794 14.3441 44.3716 13.8385 44.1622C13.333 43.9528 12.8737 43.6459 12.4868 43.259C12.0999 42.8721 11.7929 42.4127 11.5836 41.9072C11.3742 41.4017 11.2664 40.8599 11.2664 40.3127ZM40.433 36.146C41.5381 36.146 42.5979 36.585 43.3793 37.3664C44.1607 38.1478 44.5997 39.2076 44.5997 40.3127C44.5997 41.4178 44.1607 42.4776 43.3793 43.259C42.5979 44.0404 41.5381 44.4794 40.433 44.4794C39.328 44.4794 38.2682 44.0404 37.4868 43.259C36.7054 42.4776 36.2664 41.4178 36.2664 40.3127C36.2664 39.2076 36.7054 38.1478 37.4868 37.3664C38.2682 36.585 39.328 36.146 40.433 36.146Z" fill="black"/>
</svg>
