<svg width="23" height="27" viewBox="0 0 23 27" fill="none" xmlns="http://www.w3.org/2000/svg">
<path d="M11.5 13.6474C13.2429 13.6474 14.9143 12.9802 16.1467 11.7927C17.3791 10.6052 18.0714 8.99456 18.0714 7.31515C18.0714 5.63573 17.3791 4.0251 16.1467 2.83758C14.9143 1.65005 13.2429 0.98291 11.5 0.98291C9.75715 0.98291 8.08568 1.65005 6.8533 2.83758C5.62092 4.0251 4.92857 5.63573 4.92857 7.31515C4.92857 8.99456 5.62092 10.6052 6.8533 11.7927C8.08568 12.9802 9.75715 13.6474 11.5 13.6474ZM9.1538 16.022C4.09688 16.022 0 19.9697 0 24.8426C0 25.6539 0.682813 26.3119 1.52478 26.3119H21.4752C22.3172 26.3119 23 25.6539 23 24.8426C23 19.9697 18.9031 16.022 13.8462 16.022H9.1538Z" fill="black"/>
</svg>
