<svg width="25" height="25" viewBox="0 0 25 25" fill="none" xmlns="http://www.w3.org/2000/svg">
<path d="M11.0254 23.3814L10.9033 23.2583L2.34863 14.5488C0.849609 13.0232 0 10.882 0 8.63904V8.46239C0 4.69383 2.44141 1.46057 5.82031 0.753969C7.74414 0.347136 9.71191 0.834265 11.2793 2.04406C11.7188 2.38665 12.1289 2.78278 12.5 3.23779C12.7051 2.98085 12.9248 2.74531 13.1592 2.52583C13.3398 2.35454 13.5254 2.19394 13.7207 2.04406C15.2881 0.834265 17.2559 0.347136 19.1797 0.748616C22.5586 1.45522 25 4.69383 25 8.46239V8.63904C25 10.882 24.1504 13.0232 22.6514 14.5488L14.0967 23.2583L13.9746 23.3814C13.5742 23.7882 13.0469 24.0184 12.5 24.0184C11.9531 24.0184 11.4258 23.7936 11.0254 23.3814ZM11.6748 6.08027C11.6553 6.06421 11.6406 6.0428 11.626 6.02139L10.7568 4.95077L10.752 4.94542C9.62402 3.55898 7.91992 2.92731 6.25977 3.27526C3.98438 3.75169 2.34375 5.92503 2.34375 8.46239V8.63904C2.34375 10.1647 2.9248 11.626 3.94531 12.6645L12.5 21.374L21.0547 12.6645C22.0752 11.626 22.6562 10.1647 22.6562 8.63904V8.46239C22.6562 5.93039 21.0156 3.75169 18.7451 3.27526C17.085 2.92731 15.376 3.56433 14.2529 4.94542C14.2529 4.94542 14.2529 4.94542 14.248 4.95077C14.2432 4.95613 14.248 4.95077 14.2432 4.95613L13.374 6.02674C13.3594 6.04815 13.3398 6.06421 13.3252 6.08563C13.1055 6.32651 12.8076 6.46034 12.5 6.46034C12.1924 6.46034 11.8945 6.32651 11.6748 6.08563V6.08027Z" fill="white"/>
</svg>
