<svg width="25" height="23" viewBox="0 0 25 23" fill="none" xmlns="http://www.w3.org/2000/svg">
<path d="M13.6719 3.63251e-05C19.9268 3.63251e-05 25 4.66742 25 10.4219C25 11.0194 24.4775 11.5 23.8281 11.5C23.1787 11.5 22.6562 11.0194 22.6562 10.4219C22.6562 5.85785 18.6328 2.15629 13.6719 2.15629C13.0225 2.15629 12.5 1.67562 12.5 1.07816C12.5 0.4807 13.0225 3.63251e-05 13.6719 3.63251e-05ZM14.0625 8.62504C14.4769 8.62504 14.8743 8.77649 15.1674 9.04607C15.4604 9.31565 15.625 9.68129 15.625 10.0625C15.625 10.4438 15.4604 10.8094 15.1674 11.079C14.8743 11.3486 14.4769 11.5 14.0625 11.5C13.6481 11.5 13.2507 11.3486 12.9576 11.079C12.6646 10.8094 12.5 10.4438 12.5 10.0625C12.5 9.68129 12.6646 9.31565 12.9576 9.04607C13.2507 8.77649 13.6481 8.62504 14.0625 8.62504ZM12.5 5.39066C12.5 4.7932 13.0225 4.31254 13.6719 4.31254C17.3389 4.31254 20.3125 7.04828 20.3125 10.4219C20.3125 11.0194 19.79 11.5 19.1406 11.5C18.4912 11.5 17.9688 11.0194 17.9688 10.4219C17.9688 8.23871 16.0449 6.46879 13.6719 6.46879C13.0225 6.46879 12.5 5.98812 12.5 5.39066ZM5.7373 0.062927C6.68457 -0.175159 7.67578 0.269568 8.05176 1.10511L10.0049 5.41761C10.3369 6.14984 10.1074 6.99887 9.43848 7.4975L7.03125 9.31234C8.65723 12.4748 11.4404 15.0354 14.8779 16.5313L16.8457 14.3166C17.3926 13.7012 18.3105 13.4901 19.1064 13.7955L23.7939 15.5924C24.7021 15.9383 25.1855 16.8502 24.9268 17.7217L23.7549 21.6748C23.5254 22.4565 22.7539 23 21.875 23C9.79492 23 0 13.9887 0 2.87504C0 2.06644 0.59082 1.35668 1.44043 1.14105L5.7373 0.062927Z" fill="#FDB819"/>
</svg>
