<svg width="31" height="31" viewBox="0 0 31 31" fill="none" xmlns="http://www.w3.org/2000/svg">
<path d="M24.5303 12.2224C24.5303 14.9119 23.6572 17.3962 22.1865 19.4119L29.6045 26.8357C30.3369 27.5681 30.3369 28.7576 29.6045 29.49C28.8721 30.2224 27.6826 30.2224 26.9502 29.49L19.5322 22.0662C17.5166 23.5427 15.0322 24.4099 12.3428 24.4099C5.61035 24.4099 0.155273 18.9548 0.155273 12.2224C0.155273 5.48999 5.61035 0.0349121 12.3428 0.0349121C19.0752 0.0349121 24.5303 5.48999 24.5303 12.2224ZM12.3428 20.6599C13.4508 20.6599 14.548 20.4417 15.5717 20.0176C16.5954 19.5936 17.5255 18.9721 18.309 18.1886C19.0925 17.4051 19.714 16.475 20.138 15.4513C20.562 14.4276 20.7803 13.3304 20.7803 12.2224C20.7803 11.1144 20.562 10.0172 20.138 8.99352C19.714 7.96984 19.0925 7.03969 18.309 6.2562C17.5255 5.4727 16.5954 4.8512 15.5717 4.42718C14.548 4.00315 13.4508 3.78491 12.3428 3.78491C11.2347 3.78491 10.1376 4.00315 9.11388 4.42718C8.0902 4.8512 7.16006 5.4727 6.37656 6.2562C5.59307 7.03969 4.97156 7.96984 4.54754 8.99352C4.12352 10.0172 3.90527 11.1144 3.90527 12.2224C3.90527 13.3304 4.12352 14.4276 4.54754 15.4513C4.97156 16.475 5.59307 17.4051 6.37656 18.1886C7.16006 18.9721 8.0902 19.5936 9.11388 20.0176C10.1376 20.4417 11.2347 20.6599 12.3428 20.6599Z" fill="black"/>
</svg>
