<svg width="25" height="31" viewBox="0 0 25 31" fill="none" xmlns="http://www.w3.org/2000/svg">
<path d="M21.4286 30.8125C23.3984 30.8125 25 28.8506 25 26.4375V4.5625C25 2.14941 23.3984 0.1875 21.4286 0.1875H3.57143C1.60156 0.1875 0 2.14941 0 4.5625V26.4375C0 28.8506 1.60156 30.8125 3.57143 30.8125H21.4286ZM12.5 22.0625C12.1261 22.0625 11.7746 21.8711 11.5179 21.5361L5.71429 13.8799C5.35156 13.4014 5.2567 12.7041 5.46875 12.1094C5.6808 11.5146 6.16629 11.125 6.69643 11.125H18.3036C18.8337 11.125 19.3192 11.5146 19.5312 12.1094C19.7433 12.7041 19.6484 13.4014 19.2857 13.8799L13.4821 21.5361C13.231 21.8711 12.8739 22.0625 12.5 22.0625Z" fill="black"/>
</svg>
