<svg width="65" height="65" viewBox="0 0 65 65" fill="none" xmlns="http://www.w3.org/2000/svg">
<circle cx="32.5" cy="32.5" r="32" fill="white" stroke="#D9D9D9"/>
<path d="M48.5185 21.905C49.1806 21.905 49.7222 22.3407 49.7222 22.8733V24.8099H13.6111V22.8733C13.6111 22.3407 14.1528 21.905 14.8148 21.905H48.5185ZM49.7222 30.6199V42.2398C49.7222 42.7724 49.1806 43.2081 48.5185 43.2081H14.8148C14.1528 43.2081 13.6111 42.7724 13.6111 42.2398V30.6199H49.7222ZM14.8148 19C12.1591 19 10 20.7369 10 22.8733V42.2398C10 44.3761 12.1591 46.1131 14.8148 46.1131H48.5185C51.1742 46.1131 53.3333 44.3761 53.3333 42.2398V22.8733C53.3333 20.7369 51.1742 19 48.5185 19H14.8148ZM19.0278 37.3982C18.0272 37.3982 17.2222 38.0457 17.2222 38.8506C17.2222 39.6556 18.0272 40.3031 19.0278 40.3031H22.6389C23.6395 40.3031 24.4444 39.6556 24.4444 38.8506C24.4444 38.0457 23.6395 37.3982 22.6389 37.3982H19.0278ZM28.6574 37.3982C27.6568 37.3982 26.8519 38.0457 26.8519 38.8506C26.8519 39.6556 27.6568 40.3031 28.6574 40.3031H37.0833C38.0839 40.3031 38.8889 39.6556 38.8889 38.8506C38.8889 38.0457 38.0839 37.3982 37.0833 37.3982H28.6574Z" fill="#535353"/>
</svg>
