<svg width="52" height="40" viewBox="0 0 52 40" fill="none" xmlns="http://www.w3.org/2000/svg">
<path d="M0.512695 1.875C0.512695 0.835938 1.46533 0 2.64945 0H6.70037C8.65906 0 10.3952 1 11.2054 2.5H47.7972C50.1388 2.5 51.8482 4.45312 51.2338 6.4375L47.5836 18.3359C46.8268 20.7891 44.2894 22.5 41.3959 22.5H15.7103L16.1911 24.7266C16.387 25.6094 17.2684 26.25 18.2923 26.25H43.96C45.1441 26.25 46.0967 27.0859 46.0967 28.125C46.0967 29.1641 45.1441 30 43.96 30H18.2923C15.2118 30 12.5675 28.0781 11.9977 25.4297L7.40372 4.25781C7.3414 3.96094 7.0476 3.75 6.70037 3.75H2.64945C1.46533 3.75 0.512695 2.91406 0.512695 1.875ZM11.9087 36.25C11.9087 35.7575 12.0192 35.2699 12.234 34.8149C12.4488 34.36 12.7636 33.9466 13.1604 33.5984C13.5572 33.2501 14.0283 32.9739 14.5468 32.7854C15.0653 32.597 15.621 32.5 16.1822 32.5C16.7434 32.5 17.2991 32.597 17.8176 32.7854C18.3361 32.9739 18.8072 33.2501 19.204 33.5984C19.6009 33.9466 19.9157 34.36 20.1304 34.8149C20.3452 35.2699 20.4557 35.7575 20.4557 36.25C20.4557 36.7425 20.3452 37.2301 20.1304 37.6851C19.9157 38.14 19.6009 38.5534 19.204 38.9016C18.8072 39.2499 18.3361 39.5261 17.8176 39.7146C17.2991 39.903 16.7434 40 16.1822 40C15.621 40 15.0653 39.903 14.5468 39.7146C14.0283 39.5261 13.5572 39.2499 13.1604 38.9016C12.7636 38.5534 12.4488 38.14 12.234 37.6851C12.0192 37.2301 11.9087 36.7425 11.9087 36.25ZM41.8232 32.5C42.9566 32.5 44.0436 32.8951 44.8451 33.5984C45.6465 34.3016 46.0967 35.2554 46.0967 36.25C46.0967 37.2446 45.6465 38.1984 44.8451 38.9016C44.0436 39.6049 42.9566 40 41.8232 40C40.6898 40 39.6028 39.6049 38.8014 38.9016C38 38.1984 37.5497 37.2446 37.5497 36.25C37.5497 35.2554 38 34.3016 38.8014 33.5984C39.6028 32.8951 40.6898 32.5 41.8232 32.5Z" fill="black"/>
</svg>
