<svg width="30" height="35" viewBox="0 0 30 35" fill="none" xmlns="http://www.w3.org/2000/svg">
<path d="M9.05357 1.20996L8.57143 2.1875H2.14286C0.957589 2.1875 0 3.16504 0 4.375C0 5.58496 0.957589 6.5625 2.14286 6.5625H27.8571C29.0424 6.5625 30 5.58496 30 4.375C30 3.16504 29.0424 2.1875 27.8571 2.1875H21.4286L20.9464 1.20996C20.5848 0.464844 19.8415 0 19.0312 0H10.9688C10.1585 0 9.41518 0.464844 9.05357 1.20996ZM27.8571 8.75H2.14286L3.5625 31.9238C3.66964 33.6533 5.07589 35 6.77009 35H23.2299C24.9241 35 26.3304 33.6533 26.4375 31.9238L27.8571 8.75Z" fill="#D22C2C"/>
</svg>
