<svg width="32" height="27" viewBox="0 0 32 27" fill="none" xmlns="http://www.w3.org/2000/svg">
<path d="M13.9544 25.4338L13.8041 25.299L3.27527 15.7658C1.43032 14.0959 0.384644 11.7521 0.384644 9.29707V9.10371C0.384644 4.97871 3.38945 1.43965 7.54811 0.666211C9.91589 0.220898 12.3378 0.754101 14.2669 2.07832C14.8077 2.45332 15.3125 2.88691 15.7693 3.38496C16.0217 3.10371 16.2921 2.8459 16.5806 2.60566C16.8029 2.41816 17.0313 2.24238 17.2717 2.07832C19.2008 0.754101 21.6226 0.220899 23.9904 0.660352C28.1491 1.43379 31.1539 4.97871 31.1539 9.10371V9.29707C31.1539 11.7521 30.1082 14.0959 28.2633 15.7658L17.7344 25.299L17.5842 25.4338C17.0914 25.8791 16.4423 26.1311 15.7693 26.1311C15.0962 26.1311 14.4471 25.885 13.9544 25.4338ZM14.7536 6.49629C14.7296 6.47871 14.7116 6.45527 14.6935 6.43184L13.6238 5.25996L13.6178 5.2541C12.2296 3.73652 10.1322 3.04512 8.08897 3.42598C5.28849 3.94746 3.26926 6.32637 3.26926 9.10371V9.29707C3.26926 10.967 3.9844 12.5666 5.24041 13.7033L15.7693 23.2365L26.2981 13.7033C27.5541 12.5666 28.2693 10.967 28.2693 9.29707V9.10371C28.2693 6.33223 26.25 3.94746 23.4556 3.42598C21.4123 3.04512 19.3089 3.74238 17.9267 5.2541C17.9267 5.2541 17.9267 5.2541 17.9207 5.25996C17.9147 5.26582 17.9207 5.25996 17.9147 5.26582L16.845 6.4377C16.827 6.46113 16.8029 6.47871 16.7849 6.50215C16.5145 6.76582 16.1479 6.91231 15.7693 6.91231C15.3907 6.91231 15.0241 6.76582 14.7536 6.50215V6.49629Z" fill="black"/>
</svg>
