<svg width="30" height="30" viewBox="0 0 30 30" fill="none" xmlns="http://www.w3.org/2000/svg">
<path d="M2.78906 17.6944L13.377 29.2532C13.8164 29.7328 14.3965 30 15 30C15.6035 30 16.1836 29.7328 16.623 29.2532L27.2109 17.6944C28.9922 15.7554 30 13.0353 30 10.1918V9.79441C30 5.00509 27.041 0.921489 23.0039 0.133546C20.332 -0.387181 17.6133 0.633719 15.7031 2.86736L15 3.68957L14.2969 2.86736C12.3867 0.633719 9.66797 -0.387181 6.99609 0.133546C2.95898 0.921489 0 5.00509 0 9.79441V10.1918C0 13.0353 1.00781 15.7554 2.78906 17.6944Z" fill="black"/>
</svg>
