<svg width="22" height="20" viewBox="0 0 22 20" fill="none" xmlns="http://www.w3.org/2000/svg">
<path d="M10.9513 0.748279L10.952 0.749591L13.6912 6.26871L13.8079 6.50381L14.0677 6.54129L20.185 7.42404L20.1865 7.42425C20.3628 7.44916 20.5015 7.56824 20.5522 7.7221C20.6035 7.8782 20.563 8.0464 20.4425 8.16475C20.4423 8.16496 20.4421 8.16516 20.4419 8.16537L16.0071 12.4683L15.8177 12.652L15.8625 12.912L16.9085 18.9888C16.9356 19.1475 16.8704 19.3124 16.7262 19.4139C16.5806 19.5164 16.3904 19.5275 16.2365 19.4466L16.2354 19.446L10.765 16.5868L10.5333 16.4658L10.3017 16.5868L4.84043 19.4415C4.8403 19.4415 4.84017 19.4416 4.84004 19.4417C4.67892 19.5252 4.48944 19.5106 4.3511 19.4119C4.2056 19.308 4.13979 19.1405 4.16613 18.9852C4.16615 18.9851 4.16617 18.985 4.16618 18.9849L5.21222 12.9081L5.25699 12.648L5.06748 12.4642L0.631198 8.16379L0.630035 8.16267C0.51071 8.04774 0.470418 7.87872 0.522002 7.72374C0.571777 7.5742 0.710796 7.45185 0.891921 7.42371L7.00702 6.54129L7.2668 6.50381L7.38348 6.26871L10.1212 0.75269C10.1214 0.752272 10.1216 0.751854 10.1218 0.751436C10.1998 0.598151 10.3571 0.5 10.5373 0.5C10.7214 0.5 10.8789 0.60119 10.9513 0.748279ZM10.9851 2.86318L10.5369 1.96137L10.0894 2.86352L7.99449 7.08693C7.9943 7.08732 7.9941 7.0877 7.9939 7.08809C7.92744 7.21905 7.79993 7.3135 7.64572 7.33673C7.6454 7.33678 7.64508 7.33682 7.64477 7.33687L2.92326 8.01617L1.91499 8.16124L2.64651 8.87014L6.07487 12.1925C6.07509 12.1927 6.07532 12.1929 6.07554 12.1931C6.18207 12.2977 6.22595 12.4384 6.20338 12.5699C6.20336 12.57 6.20334 12.5701 6.20331 12.5703L5.39279 17.2453L5.21987 18.2427L6.11701 17.7739L10.3177 15.5787L10.318 15.5785C10.4573 15.5056 10.6222 15.5072 10.7541 15.5772L10.757 15.5787L14.9577 17.7739L15.854 18.2423L15.682 17.2457L14.8754 12.5742C14.8519 12.4382 14.8958 12.3001 15.0006 12.1995L15.0021 12.198L18.4322 8.87404L19.163 8.16587L18.1558 8.02014L13.4348 7.33701C13.4344 7.33695 13.434 7.33689 13.4336 7.33683C13.2775 7.31295 13.1495 7.21834 13.0855 7.08943L13.0855 7.08943L10.9851 2.86318Z" stroke="#FDB819"/>
</svg>
