<svg width="16" height="14" viewBox="0 0 16 14" fill="none" xmlns="http://www.w3.org/2000/svg">
<path d="M8.80278 1.06452C8.65556 0.779214 8.34444 0.597656 8.00278 0.597656C7.66111 0.597656 7.35278 0.779214 7.20278 1.06452L5.41667 4.49597L1.42778 5.04583C1.09444 5.09252 0.816667 5.31039 0.713889 5.60866C0.611111 5.90693 0.694444 6.23633 0.933333 6.4568L3.82778 9.13089L3.14444 12.9099C3.08889 13.2211 3.22778 13.5376 3.50278 13.7217C3.77778 13.9059 4.14167 13.9292 4.44167 13.7814L8.00556 12.0047L11.5694 13.7814C11.8694 13.9292 12.2333 13.9085 12.5083 13.7217C12.7833 13.535 12.9222 13.2211 12.8667 12.9099L12.1806 9.13089L15.075 6.4568C15.3139 6.23633 15.4 5.90693 15.2944 5.60866C15.1889 5.31039 14.9139 5.09252 14.5806 5.04583L10.5889 4.49597L8.80278 1.06452Z" fill="#FDB819"/>
</svg>
